# xmcd CD database file
#
# Track frame offsets:
#	150
#	12652
#	24890
#	38230
#	51920
#	64640
#	75390
#	88137
#	99415
#	111140
#	123477
#	134817
#	145257
#	156957
#	167725
#	179257
#	188802
#	200245
#	212325
#	224270
#
# Disc length: 3119 seconds
#
# Revision: 3
# Processed by: cddbd v1.5PL3 Copyright (c) Steve Scherf et al.
# Submitted via: CDex 1.51
#
DISCID=200c2d14
DTITLE=Carl Smith - The Essential Carl Smith (1950-1956)
DYEAR=1991
DGENRE=Country
TTITLE0=Guilty Conscience
TTITLE1=I Just Dropped In To Say Goodbye
TTITLE2=I Overlooked An Orchid
TTITLE3=If Teardrops Were Pennies
TTITLE4=Let's Live A Little
TTITLE5=When You Feel Like You're In Love Don't Just Stand There
TTITLE6=Let Old Mother Nature Have Her Way
TTITLE7=It's A Lovely World
TTITLE8=Are You Teasing Me
TTITLE9=This Orchid Means Goodbye
TTITLE10=Hey Joe
TTITLE11=Trademark
TTITLE12=Just Wait Till I Get You Alone
TTITLE13=Doggone It Baby, I'm In Love
TTITLE14=Back Up Buddy
TTITLE15=Go Boy Go
TTITLE16=Loose Talk
TTITLE17=Kisses Don't Lie
TTITLE18=There She Goes
TTITLE19=You Are The One
EXTD=YEAR: 1991
EXTT0=
EXTT1=
EXTT2=
EXTT3=
EXTT4=
EXTT5=
EXTT6=
EXTT7=
EXTT8=
EXTT9=
EXTT10=
EXTT11=
EXTT12=
EXTT13=
EXTT14=
EXTT15=
EXTT16=
EXTT17=
EXTT18=
EXTT19=
PLAYORDER=
